<?xml version="1.0" encoding="UTF-8"?>
<!DOCTYPE svg PUBLIC "-//W3C//DTD SVG 1.1//EN" "http://www.w3.org/Graphics/SVG/1.1/DTD/svg11.dtd">
<!-- Creator: CorelDRAW 2018 (64-Bit Evaluation Version) -->
<svg xmlns="http://www.w3.org/2000/svg" xml:space="preserve" width="8.25952in" height="8.75207in" version="1.1" style="shape-rendering:geometricPrecision; text-rendering:geometricPrecision; image-rendering:optimizeQuality; fill-rule:evenodd; clip-rule:evenodd"
viewBox="0 0 9073.75 9614.86"
 xmlns:xlink="http://www.w3.org/1999/xlink">
 <defs>
  <style type="text/css">
   <![CDATA[
    .str0 {stroke:#FEFEFE;stroke-width:7.63;stroke-miterlimit:2.61313}
    .fil1 {fill:#FEFEFE}
    .fil0 {fill:#F58634}
    .fil2 {fill:#FEFEFE;fill-rule:nonzero}
   ]]>
  </style>
 </defs>
 <g id="Layer_x0020_1">
  <metadata id="CorelCorpID_0Corel-Layer"/>
  <g id="_1929157267312">
   <rect class="fil0" x="-0.06" y="-0.06" width="9073.75" height="9614.86" rx="1873.01" ry="1873.01"/>
   <g>
    <g>
     <circle class="fil1 str0" cx="5207.07" cy="4627.44" r="374.76"/>
     <g>
      <path class="fil2" d="M4421.96 4110.92c-49.8,69.96 -145.33,85.16 -213.37,33.95 -68.03,-51.21 -82.82,-149.45 -33.02,-219.41l246.38 185.46zm1795.38 -242.19l-222.95 214.53 -44.66 -46.16 -46.35 -42.36 -47.97 -38.73 -49.48 -35.19 -50.88 -31.74 -52.15 -28.37 -53.3 -25.06 -54.32 -21.82 -55.21 -18.63 -55.93 -15.48 -56.52 -12.38 -56.94 -9.32 -57.2 -6.32 -57.27 -3.36 -57.17 -0.45 -56.89 2.4 -56.41 5.19 -55.76 7.92 -54.91 10.57 -53.87 13.15 -52.64 15.65 -51.21 18.06 -49.6 20.38 -47.81 22.6 -45.83 24.71 -43.68 26.71 -41.37 28.61 -38.9 30.36 -36.27 31.99 -33.53 33.52 -30.68 34.92 -27.75 36.26 -246.38 -185.46 40.76 -53.26 44.24 -50.39 47.44 -47.44 50.4 -44.48 53.13 -41.48 55.64 -38.48 57.98 -35.47 60.11 -32.42 62.06 -29.34 63.84 -26.24 65.46 -23.09 66.9 -19.89 68.18 -16.65 69.29 -13.34 70.25 -9.97 71.04 -6.54 71.66 -3.02 72.13 0.57 72.41 4.25 72.51 8.01 72.44 11.86 72.19 15.81 71.75 19.86 71.09 23.99 70.24 28.22 69.16 32.54 67.86 36.93 66.33 41.4 64.57 45.93 62.56 50.52 60.32 55.14 57.8 59.74zm0 0c57.61,63.31 54.4,162.66 -7.17,221.9 -61.56,59.24 -158.18,55.94 -215.78,-7.37l222.95 -214.53z"/>
     </g>
     <g>
      <path class="fil2" d="M3931.36 3570.37c-81.11,113.95 -236.69,138.7 -347.5,55.3 -110.81,-83.41 -134.88,-243.4 -53.77,-357.35l401.27 302.05zm2924.03 -394.43l-363.11 349.39 -72.73 -75.17 -75.49 -68.99 -78.13 -63.07 -80.59 -57.31 -82.86 -51.7 -84.92 -46.21 -86.81 -40.82 -88.47 -35.54 -89.9 -30.33 -91.1 -25.21 -92.05 -20.16 -92.73 -15.19 -93.15 -10.29 -93.28 -5.47 -93.11 -0.73 -92.64 3.91 -91.87 8.46 -90.81 12.9 -89.42 17.21 -87.73 21.42 -85.73 25.49 -83.4 29.42 -80.78 33.19 -77.86 36.81 -74.64 40.25 -71.14 43.51 -67.37 46.57 -63.34 49.44 -59.08 52.12 -54.61 54.59 -49.96 56.88 -45.2 59.05 -401.27 -302.05 66.38 -86.74 72.06 -82.07 77.27 -77.26 82.08 -72.43 86.53 -67.57 90.64 -62.68 94.43 -57.75 97.89 -52.79 101.08 -47.78 103.98 -42.73 106.6 -37.6 108.95 -32.4 111.04 -27.11 112.86 -21.73 114.41 -16.25 115.71 -10.64 116.72 -4.92 117.45 0.93 117.93 6.92 118.1 13.04 117.99 19.33 117.57 25.76 116.84 32.34 115.78 39.08 114.38 45.96 112.64 52.98 110.53 60.15 108.03 67.42 105.16 74.8 101.9 82.27 98.24 89.8 94.13 97.3zm0 0c93.82,103.11 88.6,264.92 -11.67,361.4 -100.27,96.48 -257.62,91.1 -351.44,-12.01l363.11 -349.39z"/>
     </g>
     <g>
      <path class="fil2" d="M3400.41 2932.48c-115,161.55 -335.58,196.65 -492.67,78.4 -157.1,-118.25 -191.23,-345.08 -76.23,-506.64l568.91 428.24zm4145.64 -559.21l-514.81 495.36 -103.11 -106.58 -107.03 -97.81 -110.78 -89.43 -114.25 -81.26 -117.47 -73.3 -120.41 -65.51 -123.07 -57.87 -125.43 -50.38 -127.47 -43 -129.16 -35.74 -130.51 -28.58 -131.48 -21.53 -132.06 -14.58 -132.24 -7.75 -132.01 -1.04 -131.35 5.54 -130.27 11.99 -128.74 18.28 -126.78 24.42 -124.39 30.37 -121.52 36.14 -118.25 41.71 -114.54 47.06 -110.38 52.18 -105.83 57.07 -100.87 61.68 -95.51 66.03 -89.81 70.11 -83.76 73.89 -77.43 77.4 -70.83 80.64 -64.09 83.72 -568.91 -428.24 94.11 -122.99 102.16 -116.35 109.55 -109.55 116.38 -102.7 122.69 -95.8 128.5 -88.86 133.87 -81.87 138.79 -74.85 143.31 -67.76 147.42 -60.57 151.13 -53.31 154.48 -45.94 157.43 -38.44 160.01 -30.81 162.21 -23.03 164.04 -15.09 165.48 -6.98 166.53 1.32 167.19 9.81 167.45 18.5 167.28 27.4 166.69 36.52 165.66 45.85 164.15 55.4 162.17 65.16 159.7 75.12 156.7 85.27 153.17 95.59 149.1 106.06 144.46 116.64 139.29 127.32 133.46 137.95zm0 0c133.02,146.19 125.61,375.59 -16.55,512.38 -142.16,136.79 -365.24,129.17 -498.26,-17.02l514.81 -495.36z"/>
     </g>
    </g>
    <path class="fil1" d="M1839.86 3404.3l1402.86 773.67 139.28 931.04c548.46,773.44 1290.64,1234.74 2355.23,1176.61l941.91 -529.68 1466.66 518.73 56.89 678.36c-173.36,396.07 -521.48,800.95 -895.57,1053.66 -2370.97,-487.51 -4451.21,-1290.71 -6219.93,-2925.36 -97.15,-260.21 -9.14,-780.16 193.92,-1269.76l558.75 -407.28z"/>
   </g>
  </g>
 </g>
</svg>
