<?xml version="1.0" encoding="iso-8859-1"?>
<!-- Uploaded to: SVG Repo, www.svgrepo.com, Generator: SVG Repo Mixer Tools -->
<svg version="1.1" id="Layer_1" xmlns="http://www.w3.org/2000/svg" xmlns:xlink="http://www.w3.org/1999/xlink" 
	 viewBox="0 0 512 512" xml:space="preserve">
<polygon style="fill:#5AC779;" points="415.803,304.362 7.886,308.567 7.886,136.149 264.411,9.989 "/>
<polygon style="fill:#00A085;" points="415.803,304.362 283.466,47.042 7.886,136.2 7.886,308.567 "/>
<polygon style="fill:#AFF078;" points="462.061,304.362 7.886,308.567 7.886,136.149 415.803,47.837 "/>
<polygon style="fill:#5AC779;" points="7.886,137.364 7.886,308.567 462.061,304.362 425.757,103.035 "/>
<path style="fill:#FFD652;" d="M447.343,502.013H7.886V136.149h439.457c17.42,0,31.54,14.12,31.54,31.54v302.784
	C478.883,487.892,464.761,502.013,447.343,502.013z"/>
<path style="fill:#FB9D46;" d="M7.886,454.703V183.459h403.712c8.709,0,15.77,7.061,15.77,15.77v239.704
	c0,8.709-7.061,15.77-15.77,15.77H7.886z"/>
<rect x="7.886" y="199.228" style="fill:#FF7452;" width="403.712" height="239.704"/>
<path style="fill:#E24642;" d="M333.799,225.512c-17.391,0-31.54,14.149-31.54,31.54v124.057c0,17.391,14.149,31.54,31.54,31.54
	h78.149V225.512H333.799z"/>
<path style="fill:#5AC779;" d="M504.115,396.879H334.85c-8.709,0-15.77-7.061-15.77-15.77V257.052c0-8.709,7.061-15.77,15.77-15.77
	h169.265V396.879z"/>
<path style="fill:#00A085;" d="M344.838,381.109V257.052c0-8.709,7.061-15.77,15.77-15.77H334.85c-8.709,0-15.77,7.061-15.77,15.77
	v124.057c0,8.709,7.061,15.77,15.77,15.77h25.758C351.898,396.879,344.838,389.82,344.838,381.109z"/>
<rect x="481.331" y="241.281" style="fill:#AFF078;" width="22.779" height="155.597"/>
<path d="M335.821,157.701h-31.216c-4.356,0-7.885,3.53-7.885,7.885s3.529,7.885,7.885,7.885h31.216c4.356,0,7.885-3.53,7.885-7.885
	S340.175,157.701,335.821,157.701z"/>
<path d="M273.387,157.701h-31.215c-4.356,0-7.885,3.53-7.885,7.885s3.529,7.885,7.885,7.885h31.215c4.356,0,7.885-3.53,7.885-7.885
	S277.742,157.701,273.387,157.701z"/>
<path d="M398.253,157.701h-31.216c-4.356,0-7.885,3.53-7.885,7.885s3.529,7.885,7.885,7.885h31.216c4.356,0,7.885-3.53,7.885-7.885
	S402.609,157.701,398.253,157.701z"/>
<path d="M148.522,157.701h-31.216c-4.356,0-7.885,3.53-7.885,7.885s3.529,7.885,7.885,7.885h31.216c4.356,0,7.885-3.53,7.885-7.885
	S152.877,157.701,148.522,157.701z"/>
<path d="M86.089,157.701H54.872c-4.356,0-7.885,3.53-7.885,7.885s3.529,7.885,7.885,7.885h31.216c4.356,0,7.885-3.53,7.885-7.885
	S90.444,157.701,86.089,157.701z"/>
<path d="M210.955,157.701h-31.216c-4.356,0-7.885,3.53-7.885,7.885s3.529,7.885,7.885,7.885h31.216c4.356,0,7.885-3.53,7.885-7.885
	S215.311,157.701,210.955,157.701z"/>
<path d="M429.47,173.471h7.885v7.885c0,4.355,3.529,7.885,7.885,7.885s7.885-3.53,7.885-7.885v-15.77
	c0-4.355-3.529-7.885-7.885-7.885h-15.77c-4.356,0-7.885,3.53-7.885,7.885S425.115,173.471,429.47,173.471z"/>
<path d="M445.24,448.92c-4.356,0-7.885,3.53-7.885,7.885v7.885h-7.885c-4.356,0-7.885,3.53-7.885,7.885s3.529,7.885,7.885,7.885
	h15.77c4.356,0,7.885-3.53,7.885-7.885v-15.77C453.125,452.451,449.595,448.92,445.24,448.92z"/>
<path d="M210.954,464.69h-31.215c-4.356,0-7.885,3.53-7.885,7.885s3.529,7.885,7.885,7.885h31.215c4.356,0,7.885-3.53,7.885-7.885
	S215.31,464.69,210.954,464.69z"/>
<path d="M86.089,464.69H54.872c-4.356,0-7.885,3.53-7.885,7.885s3.529,7.885,7.885,7.885h31.216c4.356,0,7.885-3.53,7.885-7.885
	S90.444,464.69,86.089,464.69z"/>
<path d="M398.253,464.69h-31.216c-4.356,0-7.885,3.53-7.885,7.885s3.529,7.885,7.885,7.885h31.216c4.356,0,7.885-3.53,7.885-7.885
	S402.609,464.69,398.253,464.69z"/>
<path d="M335.821,464.69h-31.216c-4.356,0-7.885,3.53-7.885,7.885s3.529,7.885,7.885,7.885h31.216c4.356,0,7.885-3.53,7.885-7.885
	S340.175,464.69,335.821,464.69z"/>
<path d="M273.387,464.69h-31.216c-4.356,0-7.885,3.53-7.885,7.885s3.529,7.885,7.885,7.885h31.216c4.356,0,7.885-3.53,7.885-7.885
	S277.742,464.69,273.387,464.69z"/>
<path d="M148.522,464.69h-31.216c-4.356,0-7.885,3.53-7.885,7.885s3.529,7.885,7.885,7.885h31.216c4.356,0,7.885-3.53,7.885-7.885
	S152.877,464.69,148.522,464.69z"/>
<path d="M504.115,233.397h-17.347v-65.708c0-21.739-17.686-39.425-39.425-39.425h-9.025l-14.755-81.826
	c-0.38-2.105-1.598-3.965-3.376-5.155c-1.779-1.189-3.964-1.605-6.053-1.152l-112.796,24.42L271.423,6.383
	c-1.966-3.823-6.635-5.368-10.491-3.469l-77.799,38.261c-3.908,1.922-5.518,6.648-3.597,10.555
	c1.922,3.908,6.648,5.517,10.555,3.596l70.849-34.843l24.44,47.522l-14.228,3.08c-4.257,0.921-6.96,5.119-6.038,9.375
	c0.922,4.257,5.121,6.96,9.375,6.038l135.002-29.227l12.802,70.993H81.572l138.249-29.93c4.257-0.921,6.96-5.119,6.038-9.375
	c-0.921-4.256-5.12-6.96-9.375-6.038l-147.38,31.907L141.73,79.11c3.909-1.922,5.518-6.648,3.597-10.555
	c-1.923-3.908-6.648-5.517-10.555-3.596L4.406,129.073c-2.691,1.316-4.45,4.18-4.405,7.176v214.371c0,4.355,3.529,7.885,7.885,7.885
	s7.885-3.53,7.885-7.885V207.114h387.942v26.283H334.85c-13.043,0-23.655,10.611-23.655,23.655v124.057
	c0,13.044,10.612,23.655,23.655,23.655h68.862v26.283H15.771v-34.168c0-4.355-3.529-7.885-7.885-7.885s-7.885,3.53-7.885,7.885
	v105.133c0,4.355,3.529,7.885,7.885,7.885h439.457c21.739,0,39.425-17.686,39.425-39.425v-65.708h17.347
	c4.356,0,7.885-3.53,7.885-7.885V241.282C512,236.928,508.469,233.397,504.115,233.397z M411.598,191.344H15.771v-17.873h7.885
	c4.356,0,7.885-3.53,7.885-7.885s-3.529-7.885-7.885-7.885h-7.885v-13.667h431.572c13.043,0,23.655,10.611,23.655,23.655v65.708
	h-17.873v-21.436c0-4.355-3.529-7.885-7.885-7.885s-7.885,3.53-7.885,7.885v21.436h-17.873v-34.168
	C419.483,194.874,415.952,191.344,411.598,191.344z M470.998,470.473c0,13.044-10.612,23.655-23.655,23.655H15.771V480.46h7.885
	c4.356,0,7.885-3.53,7.885-7.885s-3.529-7.885-7.885-7.885h-7.885v-17.873h395.827c4.356,0,7.885-3.53,7.885-7.885v-34.168h17.873
	v24.823c0,4.355,3.529,7.885,7.885,7.885s7.885-3.53,7.885-7.885v-24.823h17.873V470.473z M496.23,388.994H334.85
	c-4.348,0-7.885-3.537-7.885-7.885V257.052c0-4.348,3.537-7.885,7.885-7.885h161.38V388.994z"/>
<path d="M382.16,366.916h21.552v8.936c0,4.355,3.529,7.885,7.885,7.885s7.885-3.53,7.885-7.885v-8.936h6.834
	c10.144,0,18.398-8.254,18.398-18.398v-16.821c0-10.144-8.254-18.398-18.398-18.398h-6.834V291.22h21.552
	c4.356,0,7.885-3.53,7.885-7.885s-3.529-7.885-7.885-7.885h-21.552v-8.936c0-4.355-3.529-7.885-7.885-7.885s-7.885,3.53-7.885,7.885
	v8.936h-6.834c-10.144,0-18.398,8.254-18.398,18.398v16.821c0,10.144,8.254,18.398,18.398,18.398h6.834v22.078H382.16
	c-4.356,0-7.885,3.53-7.885,7.885S377.805,366.916,382.16,366.916z M396.879,313.298c-1.45,0-2.628-1.18-2.628-2.628v-16.821
	c0-1.449,1.179-2.628,2.628-2.628h6.834v22.078H396.879z M419.483,329.068h6.834c1.45,0,2.628,1.18,2.628,2.628v16.821
	c0,1.449-1.179,2.628-2.628,2.628h-6.834V329.068z"/>
</svg>